<svg xmlns="http://www.w3.org/2000/svg" xmlns:xlink="http://www.w3.org/1999/xlink" viewBox="0 0 580 220"><defs><style>.cls-1{fill:url(#Degradado_sin_nombre_25);}.cls-2{fill:url(#Degradado_sin_nombre_25-2);}.cls-3{fill:url(#Degradado_sin_nombre_25-3);}.cls-4{fill:url(#Degradado_sin_nombre_25-4);}.cls-5{fill:url(#Degradado_sin_nombre_25-5);}.cls-6{fill:url(#Degradado_sin_nombre_25-6);}.cls-7{fill:url(#Degradado_sin_nombre_25-7);}.cls-8{fill:url(#Degradado_sin_nombre_25-8);}.cls-9{fill:url(#Degradado_sin_nombre_25-9);}.cls-10{fill:url(#Degradado_sin_nombre_25-10);}.cls-11{fill:url(#Degradado_sin_nombre_25-11);}.cls-12{fill:url(#Degradado_sin_nombre_25-12);}.cls-13{fill:url(#Degradado_sin_nombre_31);}</style><linearGradient id="Degradado_sin_nombre_25" x1="139.64" y1="94.02" x2="-19.64" y2="185.98" gradientUnits="userSpaceOnUse"><stop offset="0" stop-color="#6dafbc"/><stop offset="0.19" stop-color="#66a7ba"/><stop offset="0.49" stop-color="#5291b6"/><stop offset="0.86" stop-color="#336daf"/><stop offset="1" stop-color="#255eac"/></linearGradient><linearGradient id="Degradado_sin_nombre_25-2" x1="180" y1="140" x2="100" y2="140" xlink:href="#Degradado_sin_nombre_25"/><linearGradient id="Degradado_sin_nombre_25-3" x1="120" y1="160" x2="60" y2="160" xlink:href="#Degradado_sin_nombre_25"/><linearGradient id="Degradado_sin_nombre_25-4" x1="130" y1="80" x2="240" y2="80" xlink:href="#Degradado_sin_nombre_25"/><linearGradient id="Degradado_sin_nombre_25-5" x1="280" y1="140" x2="160" y2="140" xlink:href="#Degradado_sin_nombre_25"/><linearGradient id="Degradado_sin_nombre_25-6" x1="340" y1="200" x2="200" y2="200" xlink:href="#Degradado_sin_nombre_25"/><linearGradient id="Degradado_sin_nombre_25-7" x1="360" y1="220" x2="360" y2="60" xlink:href="#Degradado_sin_nombre_25"/><linearGradient id="Degradado_sin_nombre_25-8" x1="410" y1="60" x2="410" y2="180" xlink:href="#Degradado_sin_nombre_25"/><linearGradient id="Degradado_sin_nombre_25-9" x1="470" y1="60" x2="470" y2="180" xlink:href="#Degradado_sin_nombre_25"/><linearGradient id="Degradado_sin_nombre_25-10" x1="580" y1="140" x2="480" y2="140" xlink:href="#Degradado_sin_nombre_25"/><linearGradient id="Degradado_sin_nombre_25-11" x1="460" y1="160" x2="520" y2="160" xlink:href="#Degradado_sin_nombre_25"/><linearGradient id="Degradado_sin_nombre_25-12" x1="420" y1="110" x2="290" y2="110" xlink:href="#Degradado_sin_nombre_25"/><linearGradient id="Degradado_sin_nombre_31" x1="280" x2="280" y2="40" gradientUnits="userSpaceOnUse"><stop offset="0" stop-color="#6dafbc"/><stop offset="0.32" stop-color="#66a7ba"/><stop offset="0.83" stop-color="#5291b6"/><stop offset="1" stop-color="#4a88b4"/></linearGradient></defs><title>BlueTheme_SVG_Logo_Azama</title><g id="Capa_2" data-name="Capa 2"><g id="Capa_1-2" data-name="Capa 1"><polygon class="cls-1" points="0 220 80 60 120 60 40 220 0 220"/><polygon class="cls-2" points="160 220 180 180 120 60 100 100 160 220"/><polygon class="cls-3" points="60 180 80 140 100 140 120 180 60 180"/><polygon class="cls-4" points="130 60 150 100 220 100 240 60 130 60"/><polygon class="cls-5" points="280 60 240 60 160 220 200 220 280 60"/><polygon class="cls-6" points="220 180 200 220 340 220 320 180 220 180"/><polygon class="cls-7" points="320 180 380 60 400 100 340 220 320 180"/><polygon class="cls-8" points="380 60 440 180 440 100 420 60 380 60"/><polygon class="cls-9" points="440 180 500 60 460 60 440 100 440 180"/><polygon class="cls-10" points="580 220 540 220 480 100 500 60 580 220"/><polygon class="cls-11" points="520 180 460 180 480 140 500 140 520 180"/><polygon class="cls-12" points="380 220 420 220 310 0 290 40 380 220"/><polygon class="cls-13" points="250 40 270 0 310 0 290 40 250 40"/></g></g></svg>