<svg xmlns="http://www.w3.org/2000/svg" xmlns:xlink="http://www.w3.org/1999/xlink" width="812" zoomAndPan="magnify" viewBox="0 0 609 263.99999" height="352" preserveAspectRatio="xMidYMid meet" version="1.0"><defs><g/><clipPath id="e5588d8491"><path d="M 34 64 L 169 64 L 169 251 L 34 251 Z M 34 64 " clip-rule="nonzero"/></clipPath><clipPath id="bbeab44350"><path d="M 0.589844 217.015625 L 68.257812 36.105469 L 191.609375 82.242188 L 123.941406 263.15625 Z M 0.589844 217.015625 " clip-rule="nonzero"/></clipPath><clipPath id="42cc9c628e"><path d="M 0.589844 217.015625 L 68.257812 36.105469 L 191.609375 82.242188 L 123.941406 263.15625 Z M 0.589844 217.015625 " clip-rule="nonzero"/></clipPath></defs><g clip-path="url(#e5588d8491)"><g clip-path="url(#bbeab44350)"><g clip-path="url(#42cc9c628e)"><path fill="#c0caf5" d="M 138.109375 67.621094 L 120.054688 115.890625 C 119.144531 118.328125 120.308594 120.886719 122.742188 121.796875 C 125.171875 122.707031 127.730469 121.539062 128.640625 119.105469 L 141.875 83.722656 L 159.074219 142.40625 L 130.140625 219.753906 C 123.660156 237.085938 104.1875 245.96875 86.875 239.492188 C 69.558594 233.015625 60.695312 213.539062 67.179688 196.207031 L 73.609375 179.015625 C 78.324219 166.410156 92.484375 159.953125 105.074219 164.660156 C 112.085938 167.285156 117.347656 172.84375 119.570312 179.554688 L 120.125 181.558594 C 121.308594 186.246094 121.21875 191.273438 119.398438 196.144531 L 112.96875 213.332031 C 110.023438 221.210938 101.171875 225.25 93.300781 222.304688 C 85.433594 219.359375 81.402344 210.507812 84.351562 202.628906 L 91.046875 184.722656 C 92.066406 182 95.210938 180.566406 97.929688 181.582031 C 100.648438 182.601562 102.082031 185.75 101.0625 188.46875 L 94.3125 206.519531 C 93.402344 208.953125 94.566406 211.511719 97 212.421875 C 99.433594 213.332031 101.988281 212.164062 102.898438 209.730469 L 109.648438 191.679688 C 112.4375 184.234375 108.585938 175.773438 101.144531 172.988281 C 93.703125 170.207031 85.246094 174.0625 82.460938 181.511719 L 75.765625 199.417969 C 71.050781 212.023438 77.496094 226.1875 90.085938 230.898438 C 102.679688 235.609375 116.839844 229.148438 121.554688 216.542969 L 127.984375 199.355469 C 130.824219 191.761719 130.675781 183.871094 128.277344 176.769531 L 106.957031 103.808594 C 107.011719 103.667969 106.867188 103.613281 106.921875 103.46875 C 103.644531 93.917969 96.378906 86.300781 86.933594 82.769531 C 69.621094 76.292969 50.148438 85.171875 43.667969 102.503906 L 37.238281 119.695312 C 33.808594 128.863281 33.636719 138.921875 36.679688 148.222656 C 36.679688 148.222656 36.679688 148.222656 36.625 148.367188 C 36.625 148.367188 57.570312 219.714844 57.570312 219.714844 C 61.171875 232.328125 70.492188 243.164062 83.660156 248.085938 C 105.695312 256.332031 130.476562 245.027344 138.726562 222.96875 L 168.195312 144.183594 C 168.515625 143.324219 168.605469 142.214844 168.300781 141.285156 L 146.800781 67.933594 C 146.191406 66.070312 144.601562 64.660156 142.617188 64.734375 C 140.628906 64.808594 138.808594 65.757812 138.109375 67.621094 Z M 45.386719 145.4375 C 45.296875 145.242188 45.296875 145.242188 45.210938 145.046875 C 42.863281 137.800781 43 130.015625 45.679688 122.851562 L 52.109375 105.664062 C 56.824219 93.058594 70.984375 86.597656 83.578125 91.308594 C 90.445312 93.878906 95.761719 99.292969 98.070312 106.199219 L 113.425781 158.476562 C 111.8125 157.546875 110.152344 156.761719 108.289062 156.066406 C 90.976562 149.589844 71.503906 158.472656 65.023438 175.804688 L 58.96875 191.992188 Z M 45.386719 145.4375 " fill-opacity="1" fill-rule="nonzero"/></g></g></g><g fill="#c0caf5" fill-opacity="1"><g transform="translate(133.859814, 143.331877)"><g><path d="M 48.691406 -37.796875 L 62.652344 0.453125 L 70.710938 0.453125 L 97.496094 -80.246094 L 85.464844 -80.246094 C 79.5625 -62.199219 72.527344 -41.085938 66.285156 -22.132812 L 53.34375 -59.132812 L 44.152344 -59.132812 L 31.097656 -22.019531 L 11.804688 -80.246094 L -0.113281 -80.246094 L 26.898438 0.453125 L 34.957031 0.453125 C 39.042969 -11.578125 44.152344 -24.855469 48.691406 -37.796875 Z M 48.691406 -37.796875 "/></g></g></g><g fill="#c0caf5" fill-opacity="1"><g transform="translate(230.789667, 143.331877)"><g><path d="M 19.523438 -53.800781 L 19.523438 -61.289062 L 8.511719 -61.289062 L 8.511719 0 L 19.523438 0 L 19.523438 -33.253906 C 19.523438 -44.492188 28.148438 -52.777344 38.476562 -52.777344 C 40.292969 -52.777344 42.222656 -52.550781 44.152344 -51.984375 L 44.152344 -61.746094 C 41.65625 -62.3125 39.269531 -62.652344 36.886719 -62.652344 C 30.078125 -62.652344 23.949219 -59.929688 19.523438 -53.800781 Z M 19.523438 -53.800781 "/></g></g></g><g fill="#c0caf5" fill-opacity="1"><g transform="translate(278.460088, 143.331877)"><g><path d="M 68.78125 -33.371094 C 67.535156 -52.664062 52.550781 -62.3125 37.34375 -62.3125 C 21.109375 -62.3125 5.449219 -51.757812 5.449219 -30.644531 C 5.449219 -9.535156 21.339844 1.136719 37.113281 1.136719 C 49.714844 1.136719 62.3125 -5.5625 66.964844 -18.953125 L 55.503906 -18.953125 C 51.871094 -12.03125 44.832031 -8.738281 37.226562 -8.738281 C 28.035156 -8.738281 16.570312 -16.003906 16.570312 -28.035156 L 68.554688 -28.035156 C 68.78125 -29.054688 68.894531 -30.191406 68.894531 -31.441406 C 68.894531 -32.121094 68.894531 -32.6875 68.78125 -33.371094 Z M 57.089844 -37.226562 L 17.023438 -37.226562 C 19.296875 -48.125 28.375 -52.550781 37.34375 -52.550781 C 46.195312 -52.550781 54.933594 -48.238281 57.089844 -37.226562 Z M 57.089844 -37.226562 "/></g></g></g><g fill="#c0caf5" fill-opacity="1"><g transform="translate(353.370738, 143.331877)"><g><path d="M 16.230469 -43.699219 C 16.230469 -50.054688 22.585938 -52.664062 29.398438 -52.664062 C 36.09375 -52.664062 41.882812 -50.054688 42.449219 -44.605469 L 53.460938 -44.605469 C 52.664062 -57.429688 41.882812 -62.652344 29.738281 -62.652344 C 17.820312 -62.652344 5.222656 -57.660156 5.222656 -43.472656 C 5.222656 -29.738281 18.273438 -26.332031 29.285156 -25.878906 C 34.617188 -25.652344 44.152344 -24.515625 44.152344 -17.707031 C 44.152344 -10.441406 35.414062 -8.625 29.851562 -8.625 C 22.246094 -8.625 15.890625 -12.03125 15.4375 -18.839844 L 4.3125 -18.839844 C 5.109375 -4.3125 16.910156 1.023438 29.625 1.023438 C 41.199219 1.023438 55.273438 -3.179688 55.273438 -17.480469 C 55.273438 -31.441406 42.109375 -35.070312 30.53125 -35.867188 C 25.082031 -36.207031 16.230469 -35.980469 16.230469 -43.699219 Z M 16.230469 -43.699219 "/></g></g></g><g fill="#c0caf5" fill-opacity="1"><g transform="translate(412.504752, 143.331877)"><g><path d="M 23.039062 -61.402344 L 23.039062 -75.023438 L 11.917969 -72.867188 L 11.917969 -61.402344 L 2.722656 -61.402344 L 2.722656 -52.550781 L 11.917969 -52.550781 L 11.917969 -18.046875 C 11.917969 -3.746094 19.75 0.339844 31.78125 0.339844 C 33.371094 0.339844 35.070312 0.226562 36.886719 0.113281 L 36.886719 -9.195312 C 35.183594 -9.082031 33.597656 -8.964844 32.234375 -8.964844 C 26.671875 -8.964844 23.039062 -10.667969 23.039062 -17.933594 L 23.039062 -52.550781 L 36.546875 -52.550781 L 36.546875 -61.402344 Z M 23.039062 -61.402344 "/></g></g></g><g fill="#c0caf5" fill-opacity="1"><g transform="translate(451.549097, 143.331877)"><g><path d="M 7.832031 -77.179688 C 7.832031 -72.867188 11.351562 -70.710938 14.753906 -70.710938 C 18.273438 -70.710938 21.679688 -72.867188 21.679688 -77.179688 C 21.679688 -81.492188 18.273438 -83.535156 14.867188 -83.535156 C 11.351562 -83.535156 7.832031 -81.378906 7.832031 -77.179688 Z M 9.195312 -62.085938 L 20.316406 -62.085938 L 20.316406 0 L 9.195312 0 Z M 9.195312 -62.085938 "/></g></g></g><g fill="#c0caf5" fill-opacity="1"><g transform="translate(482.080873, 143.331877)"><g><path d="M 68.667969 -23.382812 L 57.203125 -23.382812 C 54.480469 -13.621094 46.308594 -8.851562 37.910156 -8.851562 C 27.355469 -8.851562 16.910156 -16.003906 16.910156 -30.757812 C 16.910156 -45.402344 27.46875 -52.550781 37.796875 -52.550781 C 46.195312 -52.550781 54.480469 -47.785156 57.203125 -38.023438 L 68.667969 -38.023438 C 65.605469 -54.367188 51.644531 -62.425781 37.683594 -62.425781 C 21.679688 -62.425781 5.789062 -51.984375 5.789062 -30.757812 C 5.789062 -9.648438 21.566406 0.90625 37.457031 0.90625 C 51.417969 0.90625 65.605469 -6.921875 68.667969 -23.382812 Z M 68.667969 -23.382812 "/></g></g></g></svg>