<svg xmlns="http://www.w3.org/2000/svg" xmlns:xlink="http://www.w3.org/1999/xlink" width="816" zoomAndPan="magnify" viewBox="0 0 612 264.749989" height="353" preserveAspectRatio="xMidYMid meet" version="1.0"><defs><g/><clipPath id="82e79bd697"><path d="M 35 64 L 170 64 L 170 252 L 35 252 Z M 35 64 " clip-rule="nonzero"/></clipPath><clipPath id="8f7c81aef4"><path d="M 1.023438 217.703125 L 68.945312 36.105469 L 192.761719 82.417969 L 124.839844 264.015625 Z M 1.023438 217.703125 " clip-rule="nonzero"/></clipPath><clipPath id="1ea0276c25"><path d="M 1.023438 217.703125 L 68.945312 36.105469 L 192.761719 82.417969 L 124.839844 264.015625 Z M 1.023438 217.703125 " clip-rule="nonzero"/></clipPath></defs><g clip-path="url(#82e79bd697)"><g clip-path="url(#8f7c81aef4)"><g clip-path="url(#1ea0276c25)"><path fill="#24283b" d="M 139.0625 67.738281 L 120.9375 116.195312 C 120.023438 118.636719 121.191406 121.207031 123.632812 122.121094 C 126.078125 123.03125 128.644531 121.863281 129.558594 119.417969 L 142.839844 83.902344 L 160.105469 142.808594 L 131.0625 220.449219 C 124.554688 237.847656 105.011719 246.765625 87.632812 240.261719 C 70.25 233.761719 61.355469 214.207031 67.863281 196.8125 L 74.316406 179.558594 C 79.046875 166.90625 93.261719 160.421875 105.902344 165.148438 C 112.941406 167.78125 118.222656 173.363281 120.449219 180.097656 L 121.007812 182.109375 C 122.195312 186.8125 122.109375 191.859375 120.28125 196.75 L 113.828125 214.003906 C 110.867188 221.910156 101.984375 225.964844 94.085938 223.007812 C 86.183594 220.054688 82.140625 211.167969 85.097656 203.257812 L 91.820312 185.285156 C 92.84375 182.554688 96.003906 181.113281 98.730469 182.132812 C 101.460938 183.15625 102.898438 186.316406 101.875 189.046875 L 95.101562 207.164062 C 94.1875 209.605469 95.355469 212.175781 97.796875 213.089844 C 100.238281 214 102.804688 212.832031 103.71875 210.386719 L 110.496094 192.269531 C 113.289062 184.792969 109.425781 176.300781 101.957031 173.507812 C 94.488281 170.714844 86 174.585938 83.203125 182.0625 L 76.480469 200.035156 C 71.746094 212.6875 78.21875 226.910156 90.859375 231.636719 C 103.5 236.363281 117.710938 229.878906 122.445312 217.226562 L 128.898438 199.972656 C 131.75 192.351562 131.601562 184.429688 129.191406 177.300781 L 107.792969 104.066406 C 107.847656 103.921875 107.703125 103.867188 107.757812 103.722656 C 104.464844 94.136719 97.171875 86.492188 87.695312 82.945312 C 70.3125 76.445312 50.769531 85.359375 44.261719 102.757812 L 37.808594 120.011719 C 34.367188 129.210938 34.191406 139.308594 37.25 148.648438 C 37.25 148.648438 37.25 148.648438 37.195312 148.792969 C 37.195312 148.792969 58.214844 220.410156 58.214844 220.410156 C 61.832031 233.070312 71.191406 243.945312 84.40625 248.890625 C 106.523438 257.164062 131.398438 245.816406 139.679688 223.675781 L 169.261719 144.59375 C 169.582031 143.730469 169.671875 142.617188 169.367188 141.683594 L 147.785156 68.054688 C 147.175781 66.183594 145.578125 64.769531 143.585938 64.84375 C 141.59375 64.917969 139.761719 65.871094 139.0625 67.738281 Z M 45.988281 145.851562 C 45.898438 145.65625 45.898438 145.65625 45.808594 145.457031 C 43.453125 138.183594 43.59375 130.371094 46.28125 123.179688 L 52.738281 105.925781 C 57.46875 93.273438 71.683594 86.789062 84.324219 91.519531 C 91.21875 94.097656 96.550781 99.535156 98.871094 106.464844 L 114.28125 158.941406 C 112.667969 158.007812 110.996094 157.21875 109.128906 156.519531 C 91.75 150.019531 72.203125 158.9375 65.699219 176.332031 L 59.621094 192.582031 Z M 45.988281 145.851562 " fill-opacity="1" fill-rule="nonzero"/></g></g></g><g fill="#24283b" fill-opacity="1"><g transform="translate(134.795913, 143.737665)"><g><path d="M 48.875 -37.9375 L 62.890625 0.457031 L 70.980469 0.457031 L 97.867188 -80.550781 L 85.789062 -80.550781 C 79.867188 -62.433594 72.800781 -41.242188 66.535156 -22.214844 L 53.546875 -59.359375 L 44.320312 -59.359375 L 31.21875 -22.101562 L 11.847656 -80.550781 L -0.113281 -80.550781 L 27 0.457031 L 35.089844 0.457031 C 39.191406 -11.621094 44.320312 -24.949219 48.875 -37.9375 Z M 48.875 -37.9375 "/></g></g></g><g fill="#24283b" fill-opacity="1"><g transform="translate(232.09272, 143.737665)"><g><path d="M 19.597656 -54.003906 L 19.597656 -61.523438 L 8.542969 -61.523438 L 8.542969 0 L 19.597656 0 L 19.597656 -33.382812 C 19.597656 -44.660156 28.253906 -52.976562 38.621094 -52.976562 C 40.445312 -52.976562 42.382812 -52.75 44.320312 -52.179688 L 44.320312 -61.976562 C 41.8125 -62.546875 39.421875 -62.890625 37.027344 -62.890625 C 30.191406 -62.890625 24.039062 -60.15625 19.597656 -54.003906 Z M 19.597656 -54.003906 "/></g></g></g><g fill="#24283b" fill-opacity="1"><g transform="translate(279.94361, 143.737665)"><g><path d="M 69.042969 -33.496094 C 67.789062 -52.863281 52.75 -62.546875 37.484375 -62.546875 C 21.191406 -62.546875 5.46875 -51.953125 5.46875 -30.761719 C 5.46875 -9.570312 21.417969 1.140625 37.253906 1.140625 C 49.902344 1.140625 62.546875 -5.582031 67.21875 -19.027344 L 55.710938 -19.027344 C 52.066406 -12.078125 45.003906 -8.773438 37.371094 -8.773438 C 28.140625 -8.773438 16.632812 -16.0625 16.632812 -28.140625 L 68.8125 -28.140625 C 69.042969 -29.167969 69.15625 -30.304688 69.15625 -31.558594 C 69.15625 -32.242188 69.15625 -32.8125 69.042969 -33.496094 Z M 57.308594 -37.371094 L 17.089844 -37.371094 C 19.367188 -48.308594 28.484375 -52.75 37.484375 -52.75 C 46.371094 -52.75 55.140625 -48.421875 57.308594 -37.371094 Z M 57.308594 -37.371094 "/></g></g></g><g fill="#24283b" fill-opacity="1"><g transform="translate(355.137855, 143.737665)"><g><path d="M 16.292969 -43.863281 C 16.292969 -50.242188 22.671875 -52.863281 29.507812 -52.863281 C 36.230469 -52.863281 42.039062 -50.242188 42.609375 -44.773438 L 53.660156 -44.773438 C 52.863281 -57.648438 42.039062 -62.890625 29.851562 -62.890625 C 17.886719 -62.890625 5.242188 -57.875 5.242188 -43.636719 C 5.242188 -29.851562 18.34375 -26.433594 29.394531 -25.976562 C 34.75 -25.75 44.320312 -24.609375 44.320312 -17.773438 C 44.320312 -10.480469 35.546875 -8.660156 29.964844 -8.660156 C 22.332031 -8.660156 15.949219 -12.078125 15.496094 -18.914062 L 4.328125 -18.914062 C 5.125 -4.328125 16.976562 1.023438 29.734375 1.023438 C 41.355469 1.023438 55.484375 -3.191406 55.484375 -17.546875 C 55.484375 -31.558594 42.269531 -35.203125 30.648438 -36.003906 C 25.179688 -36.34375 16.292969 -36.117188 16.292969 -43.863281 Z M 16.292969 -43.863281 "/></g></g></g><g fill="#24283b" fill-opacity="1"><g transform="translate(414.495737, 143.737665)"><g><path d="M 23.128906 -61.636719 L 23.128906 -75.308594 L 11.960938 -73.144531 L 11.960938 -61.636719 L 2.734375 -61.636719 L 2.734375 -52.75 L 11.960938 -52.75 L 11.960938 -18.113281 C 11.960938 -3.757812 19.824219 0.339844 31.902344 0.339844 C 33.496094 0.339844 35.203125 0.226562 37.027344 0.113281 L 37.027344 -9.226562 C 35.320312 -9.113281 33.722656 -9 32.355469 -9 C 26.773438 -9 23.128906 -10.710938 23.128906 -18 L 23.128906 -52.75 L 36.6875 -52.75 L 36.6875 -61.636719 Z M 23.128906 -61.636719 "/></g></g></g><g fill="#24283b" fill-opacity="1"><g transform="translate(453.687894, 143.737665)"><g><path d="M 7.859375 -77.472656 C 7.859375 -73.144531 11.394531 -70.980469 14.8125 -70.980469 C 18.34375 -70.980469 21.761719 -73.144531 21.761719 -77.472656 C 21.761719 -81.800781 18.34375 -83.851562 14.925781 -83.851562 C 11.394531 -83.851562 7.859375 -81.6875 7.859375 -77.472656 Z M 9.226562 -62.320312 L 20.394531 -62.320312 L 20.394531 0 L 9.226562 0 Z M 9.226562 -62.320312 "/></g></g></g><g fill="#24283b" fill-opacity="1"><g transform="translate(484.335257, 143.737665)"><g><path d="M 68.929688 -23.46875 L 57.421875 -23.46875 C 54.6875 -13.671875 46.484375 -8.886719 38.054688 -8.886719 C 27.457031 -8.886719 16.976562 -16.0625 16.976562 -30.875 C 16.976562 -45.574219 27.570312 -52.75 37.9375 -52.75 C 46.371094 -52.75 54.6875 -47.964844 57.421875 -38.167969 L 68.929688 -38.167969 C 65.851562 -54.574219 51.839844 -62.660156 37.824219 -62.660156 C 21.761719 -62.660156 5.808594 -52.179688 5.808594 -30.875 C 5.808594 -9.683594 21.648438 0.910156 37.597656 0.910156 C 51.609375 0.910156 65.851562 -6.949219 68.929688 -23.46875 Z M 68.929688 -23.46875 "/></g></g></g></svg>