<?xml version="1.0" encoding="UTF-8" standalone="no"?>
<!-- Created with Inkscape (http://www.inkscape.org/) -->

<svg
   width="16mm"
   height="16mm"
   viewBox="0 0 16 16"
   version="1.1"
   id="svg5"
   xml:space="preserve"
   inkscape:version="1.2.2 (b0a8486541, 2022-12-01)"
   sodipodi:docname="inkscape.svg"
   inkscape:export-filename="blue.svg"
   inkscape:export-xdpi="7.0643768"
   inkscape:export-ydpi="7.0643768"
   xmlns:inkscape="http://www.inkscape.org/namespaces/inkscape"
   xmlns:sodipodi="http://sodipodi.sourceforge.net/DTD/sodipodi-0.dtd"
   xmlns="http://www.w3.org/2000/svg"
   xmlns:svg="http://www.w3.org/2000/svg"><sodipodi:namedview
     id="namedview7"
     pagecolor="#ffffff"
     bordercolor="#000000"
     borderopacity="0.25"
     inkscape:showpageshadow="2"
     inkscape:pageopacity="0.0"
     inkscape:pagecheckerboard="0"
     inkscape:deskcolor="#d1d1d1"
     inkscape:document-units="mm"
     showgrid="false"
     inkscape:zoom="0.25"
     inkscape:cx="-180"
     inkscape:cy="192"
     inkscape:window-width="1920"
     inkscape:window-height="1080"
     inkscape:window-x="0"
     inkscape:window-y="0"
     inkscape:window-maximized="1"
     inkscape:current-layer="layer1" /><defs
     id="defs2"><inkscape:path-effect
       effect="powerclip"
       id="path-effect849"
       is_visible="true"
       lpeversion="1"
       inverse="true"
       flatten="false"
       hide_clip="false"
       message="Utilice la regla de relleno parimpar en el diálogo &lt;b&gt;Relleno y borde&lt;/b&gt; si el resultado no está aplanada después de convertir el recorte en trayectos." /><inkscape:path-effect
       effect="powerclip"
       id="path-effect659"
       is_visible="true"
       lpeversion="1"
       inverse="true"
       flatten="false"
       hide_clip="false"
       message="Utilice la regla de relleno parimpar en el diálogo &lt;b&gt;Relleno y borde&lt;/b&gt; si el resultado no está aplanada después de convertir el recorte en trayectos." /><clipPath
       clipPathUnits="userSpaceOnUse"
       id="clipPath8399"><rect
         style="fill:#f38ba8;fill-opacity:1;stroke-width:0.264583"
         id="rect8401"
         width="59.99427"
         height="212.98958"
         x="305.19724"
         y="65.359924"
         d="m 305.19724,65.359924 h 59.99427 V 278.3495 h -59.99427 z" /></clipPath></defs><g
     inkscape:label="Capa 1"
     inkscape:groupmode="layer"
     id="layer1"
     transform="translate(-10.567155,140.84145)"><path
       style="fill:#cdd6f4;fill-opacity:1;stroke-width:0.264583"
       d="m 210.35647,310.80996 c -1.52429,-0.54469 -2.76699,-1.41644 -4.04416,-2.83697 -1.60483,-1.78495 -2.32968,-3.7692 -2.33788,-6.39987 -0.006,-1.83817 0.0959,-2.26809 0.93824,-3.96875 1.56122,-3.15195 3.93602,-4.92324 7.32702,-5.46497 1.05627,-0.16874 8.17632,-0.27551 18.45469,-0.27674 l 16.7349,-0.002 V 175.70858 59.556494 h -17.40691 c -18.83881,0 -19.22241,-0.0257 -21.46213,-1.43961 -4.25884,-2.68848 -5.75395,-7.81307 -3.63183,-12.44837 0.75782,-1.6553 2.55667,-3.5624 4.10546,-4.35254 2.67597,-1.36518 2.9156,-1.37689 26.98573,-1.31825 16.4207,0.04 22.68011,0.13901 23.56551,0.3727 2.76407,0.72957 4.83621,2.314 6.11788,4.67796 l 0.90858,1.67582 V 175.84087 304.95754 l -0.70125,1.32292 c -0.96584,1.82205 -2.44586,3.23699 -4.32583,4.13557 l -1.58751,0.75879 -24.34166,-0.0114 c -19.20981,-0.009 -24.54347,-0.0835 -25.29885,-0.35346 z m -292.598033,-3.36809 c -1.762,-0.19553 -3.15285,-0.75755 -4.48423,-1.81205 -0.5489,-0.43471 -1.09327,-0.7043 -1.20971,-0.59904 -0.11645,0.10522 -0.13112,0.0507 -0.0326,-0.12129 0.0985,-0.17193 -0.0312,-0.47186 -0.28831,-0.66649 -0.59631,-0.45143 -1.51205,-2.15476 -1.89176,-3.51879 -0.39115,-1.40513 -0.42339,-256.454196 -0.0326,-257.836466 0.144,-0.50932 0.49923,-1.28323 0.78939,-1.71979 0.29018,-0.43656 0.67813,-1.02685 0.86213,-1.31174 0.60326,-0.93405 0.9177,-1.17206 3.24497,-2.45621 l 1.32291,-0.72996 22.48959,-0.1323 c 12.36927,-0.0728 23.38709,-0.066 24.48404,0.015 3.73272,0.27562 6.93968,2.38343 8.43087,5.54128 0.59701,1.26428 0.68717,1.80234 0.68717,4.10104 0,2.30979 -0.0882,2.83066 -0.69449,4.10104 -1.23551,2.58885 -3.83474,4.64645 -6.67309,5.28254 -0.72976,0.16354 -7.89418,0.27077 -18.54057,0.27749 l -17.35123,0.011 v 58.200976 58.20096 H 6.4911971 84.111487 l 24.036283,-42.06875 c 13.21995,-23.13781 24.10547,-42.068746 24.19006,-42.068746 0.12153,0 81.98445,143.103516 83.01873,145.123966 0.2685,0.52448 0.1932,0.52869 -8.50058,0.47604 l -8.77149,-0.0531 -32.74021,-57.22918 c -18.0071,-31.47605 -32.85814,-57.22917 -33.00232,-57.22917 -0.26816,0 -65.437793,113.82065 -65.444083,114.3 -0.002,0.17096 -3.12259,0.26569 -8.81837,0.26772 -7.55505,0.003 -8.83645,-0.053 -8.96571,-0.3899 -0.083,-0.21617 0.0299,-0.52516 0.25075,-0.68666 0.32538,-0.23793 32.70014,-56.57777 32.70014,-56.90609 0,-0.0531 -34.46859,-0.0965 -76.5968699,-0.0965 H -71.129063 v 56.35626 56.35625 h 17.67907 c 19.4228,0 19.09477,-0.0246 21.57138,1.61587 4.39239,2.90939 5.53233,9.413 2.38819,13.62514 -1.27371,1.70632 -2.20619,2.43686 -4.07302,3.19092 l -1.5426,0.62307 -22.84015,0.0637 c -12.56209,0.035 -23.495,-0.009 -24.29537,-0.0979 z M 318.61503,268.46051 c -0.57021,-0.68705 -0.10695,-1.69161 2.7524,-5.9686 4.61881,-6.90874 11.26982,-19.02029 14.74653,-26.85356 l 1.52736,-3.44123 -2.44197,-0.1779 c -6.19482,-0.45131 -11.53951,-2.98705 -16.06799,-7.62333 -1.3031,-1.33414 -2.79085,-3.20691 -3.53745,-4.45293 -1.36957,-2.28572 -2.96111,-6.50002 -3.24094,-8.58178 -0.0929,-0.69122 -0.24291,-1.25662 -0.33329,-1.25644 -0.0904,1.8e-4 -0.088,-1.81552 0.005,-4.03489 0.13607,-3.2354 0.30678,-4.49578 0.86119,-6.35876 0.89509,-3.00776 2.37786,-5.93231 4.20965,-8.30281 0.80542,-1.0423 1.41608,-1.94341 1.35705,-2.00246 -0.059,-0.059 0.30755,-0.50954 0.81471,-1.00108 0.50712,-0.49154 0.92207,-0.81674 0.92207,-0.72265 0,0.0941 0.86032,-0.47614 1.91185,-1.26718 2.52032,-1.89601 5.81785,-3.47323 8.89183,-4.25301 4.37716,-1.11036 10.59114,-0.8425 14.86209,0.64064 8.34097,2.89651 14.64742,10.25454 16.39774,19.13204 0.5225,2.65013 0.42087,8.00986 -0.20005,10.55108 -0.64135,2.62472 -1.7131,5.69385 -2.61009,7.47448 -0.34822,0.69123 -0.54181,1.2586 -0.43021,1.26082 0.11157,0.002 0.0765,0.0915 -0.078,0.19844 -0.15447,0.10691 -0.77095,1.11032 -1.36994,2.22979 -1.62626,3.03928 -4.07246,6.8476 -6.64133,10.33937 -1.26018,1.71289 -2.41027,3.30677 -2.55579,3.54195 -0.14553,0.23518 -0.65099,0.85778 -1.12321,1.38356 -0.47226,0.52579 -0.85921,1.07616 -0.8599,1.22305 0,0.1469 -0.23939,0.4158 -0.53044,0.59756 -0.29104,0.18176 -0.52916,0.44311 -0.52916,0.58078 0,0.13768 -0.26789,0.53384 -0.59532,0.88038 -0.32742,0.34654 -1.25015,1.38697 -2.05052,2.31207 -3.96801,4.58644 -9.043,10.23581 -13.79119,15.35202 -3.30843,3.56488 -4.20047,4.61027 -4.20047,4.92254 0,0.12639 -0.26789,0.34733 -0.59532,0.49097 -0.32742,0.14365 -0.59531,0.40406 -0.59531,0.57868 0,0.17463 -0.14883,0.46633 -0.33073,0.64823 -0.1819,0.1819 -0.33073,0.24462 -0.33073,0.13937 0,-0.10525 -0.606,0.28766 -1.34667,0.87313 -0.74068,0.58546 -1.44532,1.06448 -1.56586,1.06448 -0.12054,0 -0.38843,0.065 -0.59531,0.14433 -0.20688,0.0794 -0.52755,-0.0381 -0.71266,-0.26115 z m 0.92985,-79.85349 0.77711,-0.8599 -0.8599,0.77711 c -0.80156,0.72437 -0.98153,0.94268 -0.77711,0.94268 0.0455,0 0.43249,-0.38695 0.8599,-0.85989 z m 10.96356,-47.55538 c -3.44207,-0.74425 -6.77844,-2.19848 -9.92187,-4.32467 -6.18824,-4.18563 -10.71923,-11.95828 -11.16952,-19.16058 -0.0842,-1.34607 -0.25458,-2.4474 -0.37872,-2.4474 -0.12415,0 -0.22572,-0.17859 -0.22572,-0.39687 0,-0.21828 0.12883,-0.39688 0.28631,-0.39688 0.18642,0 0.25564,-0.64615 0.19843,-1.85268 -0.0483,-1.01897 -0.0148,-1.85241 0.0746,-1.85208 0.0893,2.7e-4 0.23661,-0.54044 0.32726,-1.2017 0.37706,-2.75101 2.15223,-6.93101 4.23614,-9.974866 0.65413,-0.95544 1.10855,-1.81791 1.00983,-1.91663 -0.0987,-0.0987 -0.0604,-0.14646 0.0851,-0.10611 0.14552,0.0403 1.13181,-0.77003 2.19175,-1.80083 4.77825,-4.64689 10.82567,-7.31291 17.41525,-7.67756 11.1728,-0.61828 21.77635,6.08154 26.13792,16.515186 1.41732,3.39051 1.95011,6.19416 1.95011,10.26209 0,3.7822 -0.25601,5.41637 -1.39083,8.87793 -2.42385,7.39355 -9.26492,14.15766 -16.80316,16.61414 -4.4908,1.46342 -9.69619,1.77504 -14.02292,0.83951 z"
       id="path248"
       clip-path="url(#clipPath8399)"
       inkscape:original-d="m 210.35647,310.80996 c -1.52429,-0.54469 -2.76699,-1.41644 -4.04416,-2.83697 -1.60483,-1.78495 -2.32968,-3.7692 -2.33788,-6.39987 -0.006,-1.83817 0.0959,-2.26809 0.93824,-3.96875 1.56122,-3.15195 3.93602,-4.92324 7.32702,-5.46497 1.05627,-0.16874 8.17632,-0.27551 18.45469,-0.27674 l 16.7349,-0.002 V 175.70858 59.556494 h -17.40691 c -18.83881,0 -19.22241,-0.0257 -21.46213,-1.43961 -4.25884,-2.68848 -5.75395,-7.81307 -3.63183,-12.44837 0.75782,-1.6553 2.55667,-3.5624 4.10546,-4.35254 2.67597,-1.36518 2.9156,-1.37689 26.98573,-1.31825 16.4207,0.04 22.68011,0.13901 23.56551,0.3727 2.76407,0.72957 4.83621,2.314 6.11788,4.67796 l 0.90858,1.67582 V 175.84087 304.95754 l -0.70125,1.32292 c -0.96584,1.82205 -2.44586,3.23699 -4.32583,4.13557 l -1.58751,0.75879 -24.34166,-0.0114 c -19.20981,-0.009 -24.54347,-0.0835 -25.29885,-0.35346 z m -292.598033,-3.36809 c -1.762,-0.19553 -3.15285,-0.75755 -4.48423,-1.81205 -0.5489,-0.43471 -1.09327,-0.7043 -1.20971,-0.59904 -0.11645,0.10522 -0.13112,0.0507 -0.0326,-0.12129 0.0985,-0.17193 -0.0312,-0.47186 -0.28831,-0.66649 -0.59631,-0.45143 -1.51205,-2.15476 -1.89176,-3.51879 -0.39115,-1.40513 -0.42339,-256.454196 -0.0326,-257.836466 0.144,-0.50932 0.49923,-1.28323 0.78939,-1.71979 0.29018,-0.43656 0.67813,-1.02685 0.86213,-1.31174 0.60326,-0.93405 0.9177,-1.17206 3.24497,-2.45621 l 1.32291,-0.72996 22.48959,-0.1323 c 12.36927,-0.0728 23.38709,-0.066 24.48404,0.015 3.73272,0.27562 6.93968,2.38343 8.43087,5.54128 0.59701,1.26428 0.68717,1.80234 0.68717,4.10104 0,2.30979 -0.0882,2.83066 -0.69449,4.10104 -1.23551,2.58885 -3.83474,4.64645 -6.67309,5.28254 -0.72976,0.16354 -7.89418,0.27077 -18.54057,0.27749 l -17.35123,0.011 v 58.200976 58.20096 H 6.4911971 84.111487 l 24.036283,-42.06875 c 13.21995,-23.13781 24.10547,-42.068746 24.19006,-42.068746 0.12153,0 81.98445,143.103516 83.01873,145.123966 0.2685,0.52448 0.1932,0.52869 -8.50058,0.47604 l -8.77149,-0.0531 -32.74021,-57.22918 c -18.0071,-31.47605 -32.85814,-57.22917 -33.00232,-57.22917 -0.26816,0 -65.437793,113.82065 -65.444083,114.3 -0.002,0.17096 -3.12259,0.26569 -8.81837,0.26772 -7.55505,0.003 -8.83645,-0.053 -8.96571,-0.3899 -0.083,-0.21617 0.0299,-0.52516 0.25075,-0.68666 0.32538,-0.23793 32.70014,-56.57777 32.70014,-56.90609 0,-0.0531 -34.46859,-0.0965 -76.5968699,-0.0965 H -71.129063 v 56.35626 56.35625 h 17.67907 c 19.4228,0 19.09477,-0.0246 21.57138,1.61587 4.39239,2.90939 5.53233,9.413 2.38819,13.62514 -1.27371,1.70632 -2.20619,2.43686 -4.07302,3.19092 l -1.5426,0.62307 -22.84015,0.0637 c -12.56209,0.035 -23.495,-0.009 -24.29537,-0.0979 z M 318.61503,268.46051 c -0.57021,-0.68705 -0.10695,-1.69161 2.7524,-5.9686 4.61881,-6.90874 11.26982,-19.02029 14.74653,-26.85356 l 1.52736,-3.44123 -2.44197,-0.1779 c -6.19482,-0.45131 -11.53951,-2.98705 -16.06799,-7.62333 -1.3031,-1.33414 -2.79085,-3.20691 -3.53745,-4.45293 -1.36957,-2.28572 -2.96111,-6.50002 -3.24094,-8.58178 -0.0929,-0.69122 -0.24291,-1.25662 -0.33329,-1.25644 -0.0904,1.8e-4 -0.088,-1.81552 0.005,-4.03489 0.13607,-3.2354 0.30678,-4.49578 0.86119,-6.35876 0.89509,-3.00776 2.37786,-5.93231 4.20965,-8.30281 0.80542,-1.0423 1.41608,-1.94341 1.35705,-2.00246 -0.059,-0.059 0.30755,-0.50954 0.81471,-1.00108 0.50712,-0.49154 0.92207,-0.81674 0.92207,-0.72265 0,0.0941 0.86032,-0.47614 1.91185,-1.26718 2.52032,-1.89601 5.81785,-3.47323 8.89183,-4.25301 4.37716,-1.11036 10.59114,-0.8425 14.86209,0.64064 8.34097,2.89651 14.64742,10.25454 16.39774,19.13204 0.5225,2.65013 0.42087,8.00986 -0.20005,10.55108 -0.64135,2.62472 -1.7131,5.69385 -2.61009,7.47448 -0.34822,0.69123 -0.54181,1.2586 -0.43021,1.26082 0.11157,0.002 0.0765,0.0915 -0.078,0.19844 -0.15447,0.10691 -0.77095,1.11032 -1.36994,2.22979 -1.62626,3.03928 -4.07246,6.8476 -6.64133,10.33937 -1.26018,1.71289 -2.41027,3.30677 -2.55579,3.54195 -0.14553,0.23518 -0.65099,0.85778 -1.12321,1.38356 -0.47226,0.52579 -0.85921,1.07616 -0.8599,1.22305 0,0.1469 -0.23939,0.4158 -0.53044,0.59756 -0.29104,0.18176 -0.52916,0.44311 -0.52916,0.58078 0,0.13768 -0.26789,0.53384 -0.59532,0.88038 -0.32742,0.34654 -1.25015,1.38697 -2.05052,2.31207 -3.96801,4.58644 -9.043,10.23581 -13.79119,15.35202 -3.30843,3.56488 -4.20047,4.61027 -4.20047,4.92254 0,0.12639 -0.26789,0.34733 -0.59532,0.49097 -0.32742,0.14365 -0.59531,0.40406 -0.59531,0.57868 0,0.17463 -0.14883,0.46633 -0.33073,0.64823 -0.1819,0.1819 -0.33073,0.24462 -0.33073,0.13937 0,-0.10525 -0.606,0.28766 -1.34667,0.87313 -0.74068,0.58546 -1.44532,1.06448 -1.56586,1.06448 -0.12054,0 -0.38843,0.065 -0.59531,0.14433 -0.20688,0.0794 -0.52755,-0.0381 -0.71266,-0.26115 z m 0.92985,-79.85349 0.77711,-0.8599 -0.8599,0.77711 c -0.80156,0.72437 -0.98153,0.94268 -0.77711,0.94268 0.0455,0 0.43249,-0.38695 0.8599,-0.85989 z m 10.96356,-47.55538 c -3.44207,-0.74425 -6.77844,-2.19848 -9.92187,-4.32467 -6.18824,-4.18563 -10.71923,-11.95828 -11.16952,-19.16058 -0.0842,-1.34607 -0.25458,-2.4474 -0.37872,-2.4474 -0.12415,0 -0.22572,-0.17859 -0.22572,-0.39687 0,-0.21828 0.12883,-0.39688 0.28631,-0.39688 0.18642,0 0.25564,-0.64615 0.19843,-1.85268 -0.0483,-1.01897 -0.0148,-1.85241 0.0746,-1.85208 0.0893,2.7e-4 0.23661,-0.54044 0.32726,-1.2017 0.37706,-2.75101 2.15223,-6.93101 4.23614,-9.974866 0.65413,-0.95544 1.10855,-1.81791 1.00983,-1.91663 -0.0987,-0.0987 -0.0604,-0.14646 0.0851,-0.10611 0.14552,0.0403 1.13181,-0.77003 2.19175,-1.80083 4.77825,-4.64689 10.82567,-7.31291 17.41525,-7.67756 11.1728,-0.61828 21.77635,6.08154 26.13792,16.515186 1.41732,3.39051 1.95011,6.19416 1.95011,10.26209 0,3.7822 -0.25601,5.41637 -1.39083,8.87793 -2.42385,7.39355 -9.26492,14.15766 -16.80316,16.61414 -4.4908,1.46342 -9.69619,1.77504 -14.02292,0.83951 z"
       inkscape:path-effect="#path-effect659;#path-effect849"
       transform="matrix(0.11937376,0,0,0.07982701,-21.662024,-147.17177)" /></g></svg>
