<svg xmlns="http://www.w3.org/2000/svg" viewBox="0 0 128 128"><path fill="#3c6eb4" d="M93.188 59.803c.148.927.3 1.854.482 2.76h8.955v-2.76zm1.484 6.896c.185.634.381 1.265.598 1.893.52.259 1.027.548 1.517.87h11.352v-2.763zm-18.431 1.282c-.426.155-.843.336-1.252.533v.004c.41-.198.825-.382 1.252-.537zm-41.248 34.57v2.76H68.15v-2.76zm19.31 6.896v2.752H81.6v-2.752z"/><path fill="#ccc" d="M61.114 16.26c-4.91 0-9.721.567-12.586 1.707-7.89 2.888-13.95 10.775-15.746 20.33-2.365 11.186-2.224 19.941-4.572 28.178a13.589 13.589 0 0 1 3.529-1.94c1.834-.726 4.909-1.09 8.049-1.09 3.14 0 6.35.365 8.431 1.09 4.571 1.67 8.177 5.96 9.67 11.284h9.719c1.991-3.681 5.03-6.523 8.633-7.838 3.919-1.554 13.165-1.55 17.617 0 .483.176.952.39 1.414.619-3.062-8.866-2.673-18.151-5.242-30.303-1.795-9.555-7.857-17.442-15.746-20.33-3.254-1.136-8.261-1.706-13.17-1.707Z"/><path fill="#e7e8e9" d="M45.275 49.787a3.344 3.523 0 0 0-3.34 3.523 3.344 3.523 0 0 0 3.34 3.523 3.344 3.523 0 0 0 3.341-3.523 3.344 3.523 0 0 0-3.34-3.523zm33.79 0a3.344 3.523 0 0 0-3.34 3.523 3.344 3.523 0 0 0 3.34 3.523 3.344 3.523 0 0 0 3.35-3.523 3.344 3.523 0 0 0-3.35-3.523z"/><path fill="#a7a9ac" d="m50.905 50.705-12.428 3.332.356 1.332 12.43-3.332zm23.52 0-.358 1.332 12.427 3.332.358-1.332zm-22.276 2.008L39.65 59.932l.69 1.193 12.497-7.218zm21.039 0-.69 1.194 12.498 7.218.69-1.193zm-20.125 2.395-8.607 8.619c.586.074 1.144.167 1.677.271l7.905-7.916zm19.21 0-.974.974 10.809 10.826c.612-.04 1.237-.067 1.87-.08zm-18.792 3.138-3.957 6.86c.411.203.814.426 1.205.672l3.947-6.844zm18.375 0-1.195.688 5.287 9.168c.098-.039.193-.085.293-.121.31-.123.665-.233 1.037-.336z"/><path fill="#fff" d="M73.261 50.84a10.736 10.217 0 0 1-10.736 10.218A10.736 10.217 0 0 1 51.788 50.84a10.736 10.217 0 0 1 10.737-10.217A10.736 10.217 0 0 1 73.26 50.84Z"/><path fill="#3c6eb4" d="M57.399 74.29c.33.886.59 1.81.793 2.761h8.799c.443-.973.958-1.897 1.535-2.762zm44.177.001a19.673 19.673 0 0 1 1.532 2.76h11.072v-2.76z"/><path fill="#892ca0" d="m91.736 1.467-55.738.164a1.38 1.38 0 0 0-1.073.52L.295 45.883a1.38 1.38 0 0 0-.26 1.16l12.56 54.363a1.38 1.38 0 0 0 .753.935l50.285 24.061a1.38 1.38 0 0 0 1.195-.01l50.148-24.355a1.38 1.38 0 0 0 .744-.943l12.247-54.432a1.38 1.38 0 0 0-.268-1.16L92.82 1.977a1.38 1.38 0 0 0-1.083-.51Z"/></svg>
