<svg xmlns="http://www.w3.org/2000/svg" viewBox="0 0 512 512"><path fill="#3c6eb4" d="M372.8 239.2c.6 3.7 1.2 7.4 1.9 11h35.8v-11zm5.9 27.6c.7 2.5 1.5 5.1 2.4 7.6 2.1 1 4.1 2.2 6.1 3.5h45.4v-11.1zm-73.7 5.1c-1.7.6-3.4 1.3-5 2.1 1.6-.7 3.3-1.5 5-2.1M140 410.2v11h132.6v-11zm77.2 27.6v11h109.2v-11z"/><path fill="#ccc" d="M244.5 65c-19.6 0-38.9 2.3-50.3 6.8-31.6 11.6-55.8 43.1-63 81.3-9.5 44.7-8.9 79.8-18.3 112.7 4.3-3.3 9.1-5.9 14.1-7.8 7.3-2.9 19.6-4.4 32.2-4.4s25.4 1.5 33.7 4.4c18.3 6.7 32.7 23.8 38.7 45.1h38.9c8-14.7 20.1-26.1 34.5-31.4 15.7-6.2 52.7-6.2 70.5 0 1.9.7 3.8 1.6 5.7 2.5-12.2-35.5-10.7-72.6-21-121.2-7.2-38.2-31.4-69.8-63-81.3-13.1-4.4-33.1-6.7-52.7-6.7"/><path fill="#e7e8e9" d="M181.1 199.1c-7.4 0-13.4 6.3-13.4 14.1s6 14.1 13.4 14.1 13.4-6.3 13.4-14.1c0-7.7-6-14-13.4-14.1m135.2 0c-7.4 0-13.4 6.3-13.4 14.1s6 14.1 13.4 14.1 13.4-6.3 13.4-14.1c0-7.7-6-14.1-13.4-14.1"/><path fill="#a7a9ac" d="m203.6 202.8-49.7 13.3 1.4 5.3 49.7-13.3zm94.1 0-1.4 5.3 49.7 13.3 1.4-5.3zm-89.1 8.1-50 28.9 2.8 4.8 50-28.9zm84.2 0-2.8 4.8 50 28.9 2.8-4.8zm-80.5 9.5-34.4 34.5c2.3.3 4.6.7 6.7 1.1l31.6-31.7zm76.8 0-3.9 3.9 43.2 43.3q3.6-.3 7.5-.3zM213.9 233l-15.8 27.4c1.6.8 3.3 1.7 4.8 2.7l15.8-27.4zm73.5 0-4.8 2.8 21.1 36.7c.4-.2.8-.3 1.2-.5 1.2-.5 2.7-.9 4.1-1.3z"/><path fill="#fff" d="M293 203.4c0 22.6-19.2 40.9-42.9 40.9s-42.9-18.3-42.9-40.9 19.2-40.9 42.9-40.9 42.9 18.3 42.9 40.9"/><path fill="gray" d="M268.4 196c-1.4-3.7-1.4-11.2-5.8-11.2-4.3 0-8.3-2.8-12.6-2.8s-8.2 2.8-12.6 2.8c-4.3 0-4.3 7.5-5.8 11.2-1.4 3.7 18.3 15.9 18.3 15.9s20-12.2 18.5-15.9"/><path fill="#3c6eb4" d="M229.6 297.2c1.3 3.5 2.4 7.2 3.2 11H268c1.8-3.9 3.8-7.6 6.1-11zm176.7 0c2.3 3.5 4.4 7.2 6.1 11h44.3v-11z"/><path fill="#892ca0" d="M366.9 5.9 144 6.5c-1.7 0-3.3.8-4.3 2.1L1.2 183.5c-1 1.3-1.4 3-1 4.6l50.2 217.5c.4 1.6 1.5 3 3 3.7l201.1 96.2c1.5.7 3.3.7 4.8 0l200.6-97.4c1.5-.7 2.6-2.1 3-3.8l49-217.7c.4-1.6 0-3.3-1.1-4.6L371.3 7.9c-1.1-1.3-2.7-2-4.4-2m-2.6 11 136.2 169.9-47.8 212.6-195.8 95.1-196.3-93.9-49.1-212.3L146.7 17.5z"/><path fill="#3c6eb4" d="M63.8 341.3v11h193.8c.5-3.6 1-7.3 1.6-11zm98.3 41.3v11h286.7v-11h-22.2v.3H253.8v-.3z"/></svg>
