<svg xmlns="http://www.w3.org/2000/svg" viewBox="0 0 77 47" fill="none">
<path d="M36.7645 42.9736C36.4327 43.5638 35.6616 43.7318 35.1122 43.3333L15.9638 29.4066C15.6709 29.1934 15.4985 28.853 15.4985 28.4911V11.7058C15.4985 10.7817 16.5476 10.2475 17.2951 10.7903L29.0073 19.3079C30.1016 20.1049 31.6462 19.7667 32.3097 18.5884L42.0099 1.34428C42.2102 0.988847 42.5872 0.766968 42.9965 0.766968H58.5711C59.4371 0.766968 59.9821 1.69972 59.5577 2.45368L36.7645 42.9714V42.9736Z" fill="#22FF84"/>
<path d="M6.91893 0.00012207C-2.27936 13.1664 -2.33322 33.575 6.91893 46.7886H13.1337C3.8837 33.575 3.93756 13.1664 13.1337 0.00012207H6.91893Z" fill="#fff"/>
<path d="M69.3403 0.000183105H63.1255C72.3238 13.1665 72.3776 33.575 63.1255 46.7887H69.3403C78.5902 33.575 78.5364 13.1665 69.3403 0.000183105Z" fill="#fff"/>
</svg>
