<?xml version="1.0" encoding="utf-8"?>
<!-- Generator: Adobe Illustrator 26.0.3, SVG Export Plug-In . SVG Version: 6.00 Build 0)  -->
<svg version="1.0" id="Layer_1" xmlns="http://www.w3.org/2000/svg" xmlns:xlink="http://www.w3.org/1999/xlink" x="0px" y="0px"
	 viewBox="0 0 890.5 613.7" style="enable-background:new 0 0 890.5 613.7;" xml:space="preserve">
<style type="text/css">
	.st0{fill:#3D3D3A;}
	.st1{fill:#E94A61;}
</style>
<path class="st0" d="M640.5,290.4c-12.7,0-25.7,3.6-25.7,30.4c0,10.6,1.5,17.1,5,21.5c3.8,4.9,9.9,7.2,19.4,7.2
	c6.9-0.1,13.8-0.6,20.7-1.5l1-0.2v-8.5H642c-11.1,0-14.8-2.9-14.8-11.7v-3.3h29.8c4.6,0,7.5-3.1,7.5-7.8v-3.4
	C664.3,298.1,656.1,290.4,640.5,290.4 M652.4,315.2H627v-2.3c0-5.5,2-12.2,11.1-12.2h4.5c8.1,0,9.8,4.9,9.8,12.2L652.4,315.2
	L652.4,315.2z M541.9,290.4h-2.8c-17.1,0-24.7,9.3-24.7,30.3c0,17.2,4.2,28.8,24.7,28.8h2.8c16.8,0,24.6-9.4,24.6-29.5
	C566.5,299.2,559.2,290.4,541.9,290.4 M554.1,324.6c0,10.6-3.4,15-12,15H539c-10.2,0-12-4.5-12-17.6v-3.9c0-13.8,2.8-17.6,12.7-17.6
	h1.8c9.3,0,12.7,2.6,12.7,17.6L554.1,324.6z M430.6,290.4c-12.7,0-25.7,3.6-25.7,30.4c0,10.6,1.5,17.1,4.9,21.5
	c3.7,4.9,9.9,7.2,19.4,7.2c6.9-0.1,13.8-0.6,20.7-1.5l1-0.2v-8.5h-18.9c-11.1,0-14.8-2.9-14.8-11.7v-3.3h29.8c4.6,0,7.5-3.1,7.5-7.8
	v-3.4C454.5,298.1,446.4,290.4,430.6,290.4 M442.6,315.2h-25.3v-2.3c0-5.5,2-12.2,11.1-12.2h4.5c8.1,0,9.8,4.9,9.8,12.2L442.6,315.2
	z M384.2,273.2v18.5H368c-11.1,0.2-22,3.1-22,29.1c0,26.5,10.2,28.5,24.7,28.5c8.2,0.1,16.4-0.5,24.6-1.6l1-0.2v-74.3L384.2,273.2z
	 M384.2,339.1h-13.1c-9.9,0-12.5-3.2-12.5-15.3v-6.7c0-11.1,3.6-14.8,13.5-14.8h12.2L384.2,339.1z M697.4,290.4
	c-6.3,0-12.5,0.4-18.7,1.3l-1,0.2v9h20.6c7.5,0,10.2,2.6,10.2,9.8v2.8c-5.8-0.8-11.7-1.2-17.6-1.3c-9.3,0-21.6,2.1-21.6,19.7
	c0,16.4,10.1,17.7,23.3,17.7c8.8-0.1,17.6-0.8,26.4-2.1l1-0.2l0.2-36.9C720.1,292.9,709.3,290.5,697.4,290.4 M708.5,339.1H690
	c-5.9,0-8.1-2-8.1-7V330c0-5.2,2.8-7.5,8.8-7.5h17.9L708.5,339.1z M484.2,333.8l-17.4-41.9h-12.4l23.4,56.5h11.9l23-56.5h-12
	L484.2,333.8z M590.9,331.3v-30.1h17.2v-9.4H591V274h-11.4v17.7h-9.1v9.6h8.5v30.3c0,9,2.1,18.2,17.2,18.2c4.7-0.1,9.4-0.7,14-1.8
	l0.8-0.2v-8.5h-11.9C592.7,339.2,590.9,337.4,590.9,331.3 M788.5,290.3c-6.5,0.1-13,0.9-19.4,2.3c-4.1-2.1-8.8-2.3-13.5-2.3
	c-8,0.2-15.9,1-23.8,2.3v55.6h12V301H755c8.1,0,10.6,2.6,10.6,11.7v35.6h12v-38.9c0.1-2.8-0.4-5.6-1.3-8.3h10.2
	c9.1,0,12,2.8,12,11.7v35.5h11.9V310c0.3-19.7-14.7-19.7-22-19.7"/>
<path class="st1" d="M188,199c-59.6-0.1-107.9,48.1-108,107.7c-0.1,59.6,48.1,107.9,107.7,108s107.9-48.1,108-107.7c0,0,0,0,0,0
	v-0.1C295.7,247.4,247.5,199.1,188,199 M259.8,298.7h-41.3v75.3h-49c-26.5,0-50.4-16.1-50.4-50.4c0-25.5,13.3-50.4,50.4-50.4h11.4
	c2.9,8.4,5.1,17.1,6.4,25.9h-17.1c-15.3,0-23.9,8.3-23.9,24.7c0,15.5,8.1,24.7,23.9,24.7h21.8V235h26.5v38.4h41.3L259.8,298.7z"/>
</svg>
