<svg width="151" height="136" viewBox="0 0 151 136" fill="none" xmlns="http://www.w3.org/2000/svg">
<path d="M19.1436 25.6906C18.0217 23.0523 19.9578 20.125 22.8248 20.125H44.9962C46.6005 20.125 48.0495 21.0835 48.6773 22.5598L94.5896 130.491C95.7357 133.247 94.5896 135.944 89.9915 135.944C76.4926 135.944 65.1725 128.185 59.6127 115.884C46.4586 86.7807 23.2847 35.4256 19.1436 25.6906Z" fill="#F77E21"/>
<path fill-rule="evenodd" clip-rule="evenodd" d="M89.9716 0.242188C77.6898 0.242188 72.9903 21.6033 72.9845 30.881C72.9622 40.3523 75.4116 49.7267 79.172 58.4195C82.0366 65.1583 95.6972 95.4594 105.294 116.197C110.952 128.425 122.028 135.922 135.501 135.922C140.146 135.922 141.173 133.131 140.146 130.661L104.786 47.4392C102.516 42.2172 101.349 36.5825 101.359 30.8884C101.368 25.3854 102.433 19.9354 104.495 14.8334C105.88 11.3733 107.726 8.11646 109.958 5.14557C111.393 3.23621 110.119 0.242188 107.73 0.242188H89.9716Z" fill="#FAC213"/>
<path d="M150.331 30.892C150.331 39.4435 143.399 46.3759 134.847 46.3759C126.296 46.3759 119.363 39.4435 119.363 30.892C119.363 22.3406 126.296 15.4082 134.847 15.4082C143.399 15.4082 150.331 22.3406 150.331 30.892Z" fill="#FAC213"/>
<path d="M0.655021 83.6C-0.466293 80.9618 1.46983 78.0352 4.33645 78.0352H25.2588C26.8633 78.0352 28.3126 78.9939 28.9402 80.4706L50.2744 130.665C51.2786 133.158 50.0964 135.965 45.6211 135.965C32.0618 135.965 20.913 128.203 15.2221 115.893C8.97665 102.886 2.4938 87.9263 0.655021 83.6Z" fill="#D61C4E"/>
</svg>
