<svg width="301" height="73" viewBox="0 0 301 73" fill="none" xmlns="http://www.w3.org/2000/svg">
<path d="M94.9034 35.1145C95.4771 35.5317 96.1029 35.7403 96.7809 35.7403C97.4589 35.7403 98.0587 35.5317 98.5802 35.1145C99.1539 34.6973 99.4408 34.0975 99.4408 33.3152V3.58757C99.4408 2.70096 99.1539 2.04904 98.5802 1.63181C98.0587 1.16243 97.4589 0.927734 96.7809 0.927734C96.1029 0.927734 95.4771 1.16243 94.9034 1.63181C94.3819 2.04904 94.1211 2.70096 94.1211 3.58757V33.3152C94.1211 34.0975 94.3819 34.6973 94.9034 35.1145Z" fill="#181232"/>
<path fill-rule="evenodd" clip-rule="evenodd" d="M282.782 34.3112C284.506 35.3254 286.458 35.8325 288.639 35.8325C290.059 35.8325 291.326 35.5789 292.442 35.0718C293.558 34.6154 294.521 33.9815 295.333 33.1702V33.4744C295.333 34.2351 295.586 34.8183 296.093 35.224C296.651 35.6296 297.26 35.8325 297.919 35.8325C298.578 35.8325 299.161 35.6296 299.668 35.224C300.226 34.8183 300.505 34.2351 300.505 33.4744V4.56912C300.505 3.70703 300.226 3.07314 299.668 2.66745C299.161 2.21105 298.578 1.98285 297.919 1.98285C297.26 1.98285 296.651 2.21105 296.093 2.66745C295.586 3.07314 295.333 3.70703 295.333 4.56912V15.2184C294.521 14.4071 293.558 13.7732 292.442 13.3168C291.326 12.8604 290.059 12.6322 288.639 12.6322C286.458 12.6322 284.506 13.1393 282.782 14.1535C281.057 15.117 279.714 16.4609 278.75 18.185C277.787 19.9092 277.305 21.8616 277.305 24.0422C277.305 26.2735 277.787 28.3019 278.75 30.1275C279.714 31.9024 281.057 33.2969 282.782 34.3112ZM293.659 29.2147C292.543 30.4825 291.022 31.1164 289.095 31.1164C287.117 31.1164 285.52 30.4825 284.303 29.2147C283.086 27.8962 282.477 26.172 282.477 24.0422C282.477 22.0137 283.086 20.391 284.303 19.1739C285.52 17.9568 287.117 17.3483 289.095 17.3483C291.022 17.3483 292.543 17.9568 293.659 19.1739C294.775 20.391 295.333 22.0137 295.333 24.0422C295.333 26.172 294.775 27.8962 293.659 29.2147Z" fill="#181232"/>
<path d="M138.09 35.8308C137.431 35.8308 136.822 35.6279 136.264 35.2222C135.757 34.8166 135.503 34.2334 135.503 33.4727V23.8883C135.503 21.657 134.996 20.0089 133.982 18.944C133.019 17.8791 131.726 17.3466 130.103 17.3466C128.024 17.3466 126.502 18.0312 125.539 19.4004C124.626 20.7189 124.17 22.1895 124.17 23.8123V33.4727C124.17 34.2334 123.891 34.8166 123.333 35.2222C122.826 35.6279 122.243 35.8308 121.583 35.8308C120.924 35.8308 120.316 35.6279 119.758 35.2222C119.251 34.8166 118.997 34.2334 118.997 33.4727V15.5971C118.997 14.735 119.251 14.1011 119.758 13.6954C120.316 13.239 120.924 13.0108 121.583 13.0108C122.243 13.0108 122.826 13.239 123.333 13.6954C123.891 14.1011 124.17 14.735 124.17 15.5971C125.032 14.735 126.147 14.025 127.516 13.4672C128.886 12.9094 130.179 12.6305 131.396 12.6305C134.236 12.6305 136.492 13.5433 138.166 15.3689C139.839 17.1945 140.676 19.8821 140.676 23.4319V33.4727C140.676 34.2334 140.397 34.8166 139.839 35.2222C139.281 35.6279 138.698 35.8308 138.09 35.8308Z" fill="#181232"/>
<path fill-rule="evenodd" clip-rule="evenodd" d="M155.877 35.8308C153.645 35.8308 151.617 35.3237 149.791 34.3094C148.016 33.2952 146.622 31.9007 145.608 30.1258C144.593 28.3002 144.086 26.2717 144.086 24.0405C144.086 21.8599 144.593 19.9075 145.608 18.1833C146.622 16.4591 148.016 15.1153 149.791 14.1518C151.617 13.1376 153.645 12.6305 155.877 12.6305C158.108 12.6305 160.111 13.1376 161.886 14.1518C163.661 15.1153 165.055 16.4591 166.069 18.1833C167.134 19.9075 167.667 21.8599 167.667 24.0405C167.667 26.2717 167.134 28.3002 166.069 30.1258C165.055 31.9007 163.661 33.2952 161.886 34.3094C160.111 35.3237 158.108 35.8308 155.877 35.8308ZM155.877 31.1146C157.854 31.1146 159.452 30.4808 160.669 29.213C161.886 27.8945 162.494 26.1703 162.494 24.0405C162.494 22.012 161.886 20.3893 160.669 19.1722C159.452 17.9551 157.854 17.3466 155.877 17.3466C153.848 17.3466 152.225 17.9551 151.008 19.1722C149.842 20.3893 149.259 22.012 149.259 24.0405C149.259 26.1703 149.842 27.8945 151.008 29.213C152.225 30.4808 153.848 31.1146 155.877 31.1146Z" fill="#181232"/>
<path d="M212.385 35.2242C212.943 35.6298 213.552 35.8327 214.211 35.8327C214.87 35.8327 215.453 35.6298 215.96 35.2242C216.518 34.8185 216.797 34.2353 216.797 33.4746V23.8142C216.797 22.1914 217.152 20.7208 217.862 19.4023C218.623 18.0331 220.093 17.3485 222.274 17.3485C223.744 17.3485 224.911 17.881 225.773 18.9459C226.635 20.0108 227.066 21.659 227.066 23.8902V33.4746C227.066 34.2353 227.32 34.8185 227.827 35.2242C228.384 35.6298 228.993 35.8327 229.652 35.8327C230.261 35.8327 230.844 35.6298 231.402 35.2242C231.96 34.8185 232.239 34.2353 232.239 33.4746V22.2168C232.441 20.8983 232.948 19.7573 233.76 18.7938C234.571 17.8303 235.89 17.3485 237.715 17.3485C240.961 17.3485 242.584 19.5291 242.584 23.8902V33.4746C242.584 34.2353 242.837 34.8185 243.344 35.2242C243.902 35.6298 244.511 35.8327 245.17 35.8327C245.778 35.8327 246.362 35.6298 246.919 35.2242C247.477 34.8185 247.756 34.2353 247.756 33.4746V23.4338C247.756 19.8841 246.945 17.1964 245.322 15.3708C243.699 13.5452 241.519 12.6324 238.78 12.6324C236.752 12.6324 235.028 13.0381 233.608 13.8494C232.239 14.6101 231.25 15.5229 230.641 16.5878C229.069 13.9509 226.635 12.6324 223.339 12.6324C222.172 12.6324 220.981 12.8859 219.764 13.393C218.547 13.9002 217.558 14.5594 216.797 15.3708C216.797 15.1172 216.746 14.8383 216.645 14.534C216.442 13.9762 216.112 13.5959 215.656 13.393C215.2 13.1395 214.718 13.0127 214.211 13.0127C213.552 13.0127 212.943 13.2409 212.385 13.6973C211.878 14.103 211.624 14.7369 211.624 15.599V33.4746C211.624 34.2353 211.878 34.8185 212.385 35.2242Z" fill="#181232"/>
<path fill-rule="evenodd" clip-rule="evenodd" d="M262.481 35.8327C260.3 35.8327 258.348 35.3256 256.624 34.3114C254.899 33.2971 253.556 31.9026 252.592 30.1277C251.629 28.3021 251.147 26.2737 251.147 24.0424C251.147 21.8618 251.629 19.9094 252.592 18.1852C253.556 16.4611 254.899 15.1172 256.624 14.1537C258.348 13.1395 260.3 12.6324 262.481 12.6324C263.901 12.6324 265.168 12.8859 266.284 13.393C267.4 13.8494 268.363 14.458 269.175 15.2186C269.276 14.5087 269.58 13.9762 270.087 13.6212C270.595 13.2156 271.152 13.0127 271.761 13.0127C272.42 13.0127 273.003 13.2409 273.51 13.6973C274.068 14.103 274.347 14.7369 274.347 15.599V33.4746C274.347 34.2353 274.068 34.8185 273.51 35.2242C273.003 35.6298 272.42 35.8327 271.761 35.8327C271.102 35.8327 270.493 35.6298 269.935 35.2242C269.428 34.8185 269.175 34.2353 269.175 33.4746V33.1704C268.363 33.9817 267.4 34.6156 266.284 35.072C265.168 35.5791 263.901 35.8327 262.481 35.8327ZM262.937 31.1166C264.864 31.1166 266.385 30.4827 267.501 29.2149C268.617 27.8964 269.175 26.1722 269.175 24.0424C269.175 22.0139 268.617 20.3912 267.501 19.1741C266.385 17.957 264.864 17.3485 262.937 17.3485C260.959 17.3485 259.362 17.957 258.145 19.1741C256.928 20.3912 256.319 22.0139 256.319 24.0424C256.319 26.1722 256.928 27.8964 258.145 29.2149C259.362 30.4827 260.959 31.1166 262.937 31.1166Z" fill="#181232"/>
<path d="M96.8865 72.2525C96.2272 72.2525 95.6187 72.0497 95.0609 71.644C94.5538 71.2383 94.3002 70.6551 94.3002 69.8944V52.0188C94.3002 51.1567 94.5538 50.5228 95.0609 50.1171C95.6187 49.6607 96.2272 49.4325 96.8865 49.4325C97.3936 49.4325 97.8753 49.5593 98.3317 49.8128C98.7881 50.0157 99.1178 50.396 99.3206 50.9538C99.422 51.2581 99.4727 51.537 99.4727 51.7906C100.233 50.9792 101.222 50.3199 102.439 49.8128C103.656 49.3057 104.848 49.0522 106.014 49.0522C109.311 49.0522 111.745 50.3707 113.317 53.0076C113.925 51.9427 114.914 51.0299 116.283 50.2692C117.703 49.4579 119.428 49.0522 121.456 49.0522C124.194 49.0522 126.375 49.965 127.998 51.7906C129.62 53.6162 130.432 56.3039 130.432 59.8536V69.8944C130.432 70.6551 130.153 71.2383 129.595 71.644C129.037 72.0497 128.454 72.2525 127.846 72.2525C127.186 72.2525 126.578 72.0497 126.02 71.644C125.513 71.2383 125.259 70.6551 125.259 69.8944V60.31C125.259 55.9489 123.637 53.7683 120.391 53.7683C118.565 53.7683 117.247 54.2501 116.436 55.2136C115.624 56.1771 115.117 57.3181 114.914 58.6366V69.8944C114.914 70.6551 114.635 71.2383 114.078 71.644C113.52 72.0497 112.937 72.2525 112.328 72.2525C111.669 72.2525 111.06 72.0497 110.502 71.644C109.995 71.2383 109.742 70.6551 109.742 69.8944V60.31C109.742 58.0787 109.311 56.4306 108.449 55.3657C107.587 54.3008 106.42 53.7683 104.95 53.7683C102.769 53.7683 101.298 54.4529 100.538 55.8221C99.8277 57.1406 99.4727 58.6112 99.4727 60.234V69.8944C99.4727 70.6551 99.1938 71.2383 98.636 71.644C98.1289 72.0497 97.5457 72.2525 96.8865 72.2525Z" fill="#181232"/>
<path fill-rule="evenodd" clip-rule="evenodd" d="M138.984 70.7312C140.809 71.7454 142.838 72.2525 145.069 72.2525C147.3 72.2525 149.303 71.7454 151.078 70.7312C152.853 69.7169 154.248 68.3224 155.262 66.5475C156.327 64.7219 156.859 62.6935 156.859 60.4622C156.859 58.2816 156.327 56.3292 155.262 54.605C154.248 52.8809 152.853 51.537 151.078 50.5735C149.303 49.5593 147.3 49.0522 145.069 49.0522C142.838 49.0522 140.809 49.5593 138.984 50.5735C137.209 51.537 135.814 52.8809 134.8 54.605C133.786 56.3292 133.279 58.2816 133.279 60.4622C133.279 62.6935 133.786 64.7219 134.8 66.5475C135.814 68.3224 137.209 69.7169 138.984 70.7312ZM149.861 65.6347C148.644 66.9025 147.047 67.5364 145.069 67.5364C143.04 67.5364 141.418 66.9025 140.201 65.6347C139.034 64.3162 138.451 62.592 138.451 60.4622C138.451 58.4337 139.034 56.811 140.201 55.5939C141.418 54.3768 143.04 53.7683 145.069 53.7683C147.047 53.7683 148.644 54.3768 149.861 55.5939C151.078 56.811 151.687 58.4337 151.687 60.4622C151.687 62.592 151.078 64.3162 149.861 65.6347Z" fill="#181232"/>
<path fill-rule="evenodd" clip-rule="evenodd" d="M171.233 72.2525C169.001 72.2525 166.973 71.7454 165.147 70.7312C163.372 69.7169 161.978 68.3224 160.964 66.5475C159.949 64.7219 159.442 62.6935 159.442 60.4622C159.442 58.2816 159.949 56.3292 160.964 54.605C161.978 52.8809 163.372 51.537 165.147 50.5735C166.973 49.5593 169.001 49.0522 171.233 49.0522C173.464 49.0522 175.467 49.5593 177.242 50.5735C179.017 51.537 180.411 52.8809 181.425 54.605C182.49 56.3292 183.023 58.2816 183.023 60.4622C183.023 62.6935 182.49 64.7219 181.425 66.5475C180.411 68.3224 179.017 69.7169 177.242 70.7312C175.467 71.7454 173.464 72.2525 171.233 72.2525ZM171.233 67.5364C173.21 67.5364 174.808 66.9025 176.025 65.6347C177.242 64.3162 177.85 62.592 177.85 60.4622C177.85 58.4337 177.242 56.811 176.025 55.5939C174.808 54.3768 173.21 53.7683 171.233 53.7683C169.204 53.7683 167.581 54.3768 166.364 55.5939C165.198 56.811 164.615 58.4337 164.615 60.4622C164.615 62.592 165.198 64.3162 166.364 65.6347C167.581 66.9025 169.204 67.5364 171.233 67.5364Z" fill="#181232"/>
<path fill-rule="evenodd" clip-rule="evenodd" d="M190.871 70.7312C192.595 71.7454 194.547 72.2525 196.728 72.2525C198.148 72.2525 199.415 71.999 200.531 71.4918C201.647 71.0354 202.61 70.4016 203.421 69.5902V69.8944C203.421 70.6551 203.675 71.2383 204.182 71.644C204.74 72.0497 205.349 72.2525 206.008 72.2525C206.667 72.2525 207.25 72.0497 207.757 71.644C208.315 71.2383 208.594 70.6551 208.594 69.8944V40.9891C208.594 40.127 208.315 39.4931 207.757 39.0875C207.25 38.6311 206.667 38.4028 206.008 38.4028C205.349 38.4028 204.74 38.6311 204.182 39.0875C203.675 39.4931 203.421 40.127 203.421 40.9891V51.6384C202.61 50.8271 201.647 50.1932 200.531 49.7368C199.415 49.2804 198.148 49.0522 196.728 49.0522C194.547 49.0522 192.595 49.5593 190.871 50.5735C189.146 51.537 187.802 52.8809 186.839 54.605C185.875 56.3292 185.394 58.2816 185.394 60.4622C185.394 62.6935 185.875 64.7219 186.839 66.5475C187.802 68.3224 189.146 69.7169 190.871 70.7312ZM201.748 65.6347C200.632 66.9025 199.111 67.5364 197.184 67.5364C195.206 67.5364 193.609 66.9025 192.392 65.6347C191.175 64.3162 190.566 62.592 190.566 60.4622C190.566 58.4337 191.175 56.811 192.392 55.5939C193.609 54.3768 195.206 53.7683 197.184 53.7683C199.111 53.7683 200.632 54.3768 201.748 55.5939C202.864 56.811 203.421 58.4337 203.421 60.4622C203.421 62.592 202.864 64.3162 201.748 65.6347Z" fill="#181232"/>
<path d="M173.612 13.0833C172.952 13.0833 172.344 13.2862 171.786 13.6918C171.279 14.0975 171.025 14.6807 171.025 15.4414V25.46C171.019 36.0537 182.705 38.6656 189.09 32.3486C195.476 38.6656 207.162 36.0537 207.155 25.46V15.4414C207.155 14.6807 206.902 14.0975 206.395 13.6918C205.837 13.2862 205.228 13.0833 204.569 13.0833C203.91 13.0833 203.327 13.2862 202.82 13.6918C202.262 14.0975 201.983 14.6807 201.983 15.4414V25.1018C201.983 26.7246 201.628 28.1952 200.918 29.5137C200.157 30.8829 198.687 31.5675 196.506 31.5675C195.035 31.5675 193.869 31.035 193.007 29.9701C192.145 28.9052 191.714 27.257 191.714 25.0258V15.4414C191.714 14.6807 191.46 14.0975 190.953 13.6918C190.395 13.2862 189.787 13.0833 189.128 13.0833L189.108 13.0834L189.09 13.0836L189.079 13.0834L189.053 13.0833C188.394 13.0833 187.785 13.2862 187.227 13.6918C186.72 14.0975 186.467 14.6807 186.467 15.4414V25.0258C186.467 27.257 186.036 28.9052 185.174 29.9701C184.312 31.035 183.145 31.5675 181.675 31.5675C179.494 31.5675 178.023 30.8829 177.263 29.5137C176.553 28.1952 176.198 26.7246 176.198 25.1018V15.4414C176.198 14.6807 175.919 14.0975 175.361 13.6918C174.854 13.2862 174.271 13.0833 173.612 13.0833Z" fill="#181232"/>
<path d="M106.435 24.1645L114.052 16.9671C114.625 16.2891 114.912 15.6632 114.912 15.0895C114.912 14.4115 114.651 13.8379 114.13 13.3685C113.608 12.8469 113.008 12.5862 112.33 12.5862C111.652 12.5862 111.027 12.873 110.453 13.4467L101.818 22.0082C101.144 22.681 100.855 23.4565 100.859 24.1645C100.855 24.8725 101.144 25.648 101.818 26.3209L110.453 34.8823C111.027 35.456 111.652 35.7429 112.33 35.7429C113.008 35.7429 113.608 35.4821 114.13 34.9605C114.651 34.4912 114.912 33.9175 114.912 33.2395C114.912 32.6658 114.625 32.0399 114.052 31.3619L106.435 24.1645Z" fill="#181232"/>
<path d="M10.4642 13.7187C9.87005 12.3216 10.8953 10.7715 12.4135 10.7715H24.1544C25.0039 10.7715 25.7713 11.279 26.1037 12.0608L50.4165 69.2158C51.0234 70.6751 50.4165 72.1033 47.9816 72.1033C40.8333 72.1033 34.8387 67.9943 31.8945 61.4804C24.9288 46.0689 12.6571 18.8739 10.4642 13.7187Z" fill="#F77E21"/>
<path fill-rule="evenodd" clip-rule="evenodd" d="M47.9721 0.242188C41.4683 0.242188 38.9797 11.554 38.9766 16.4669C38.9648 21.4825 40.2619 26.4466 42.2532 31.0499C43.7702 34.6185 51.0041 50.6643 56.086 61.6459C59.0823 68.121 64.9476 72.0912 72.0824 72.0912C74.542 72.0912 75.0856 70.6133 74.542 69.3052L55.817 25.2353C54.6148 22.47 53.9969 19.4862 54.0021 16.4708C54.0072 13.5568 54.571 10.6707 55.6629 7.96893C56.3964 6.13666 57.374 4.412 58.5562 2.83877C59.3159 1.82767 58.641 0.242188 57.3763 0.242188H47.9721Z" fill="#FAC213"/>
<path d="M79.9341 16.4729C79.9341 21.0013 76.263 24.6723 71.7346 24.6723C67.2062 24.6723 63.5352 21.0013 63.5352 16.4729C63.5352 11.9445 67.2062 8.27344 71.7346 8.27344C76.263 8.27344 79.9341 11.9445 79.9341 16.4729Z" fill="#FAC213"/>
<path d="M0.674945 44.3844C0.0811547 42.9873 1.10643 41.4375 2.62444 41.4375H13.7038C14.5535 41.4375 15.321 41.9452 15.6533 42.7272L26.9508 69.3078C27.4826 70.6276 26.8566 72.1143 24.4867 72.1143C17.3064 72.1143 11.4025 68.0036 8.38895 61.485C5.08165 54.5971 1.64867 46.6753 0.674945 44.3844Z" fill="#D61C4E"/>
</svg>
