<?xml version="1.0" encoding="UTF-8"?>
<svg width="120px" height="120px" viewBox="0 0 120 120" version="1.1" xmlns="http://www.w3.org/2000/svg" xmlns:xlink="http://www.w3.org/1999/xlink">
    <title>openbank/icon/openbank_principal            </title>
    <g id="openbank/icon/openbank_principal------------" stroke="none" stroke-width="1" fill="none" fill-rule="evenodd">
        <path d="M107.495116,51.4933333 L58.1607814,51.4933333 C52.6791886,51.4933333 47.7746056,55.6 47.1975958,61.1733333 C46.3320811,68.8 40.5619835,73.2 33.6378663,73.4933333 C26.1367393,73.4933333 20.0781367,67.3333333 20.0781367,59.7066667 C20.0781367,52.08 26.1367393,45.92 33.6378663,45.92 C38.5424493,45.92 42.8700225,48.56 45.1780616,52.6666667 C45.4665665,52.96 45.7550714,52.96 46.0435763,52.6666667 C47.4861007,50.9066667 49.21713,49.44 51.2366642,48.56 C51.525169,48.56 51.525169,47.9733333 51.525169,47.68 C47.7746056,41.8133333 41.1389932,38 33.6378663,38 C21.809166,38 12.2885049,47.68 12,60 C12,72.0266667 21.5206612,82 33.6378663,82 C44.6010518,81.7066667 53.8332081,74.3733333 54.9872276,62.64 C55.2757325,61.1733333 56.4297521,60 58.1607814,60 L100.282494,60 L100.282494,65.8666667 C100.282494,69.0933333 99.4169797,73.7866667 95.3779113,73.7866667 C91.338843,73.7866667 90.4733283,69.0933333 90.4733283,65.8666667 L90.4733283,64.1066667 C90.4733283,63.8133333 90.1848234,63.52 89.8963186,63.52 L82.9722014,63.52 C82.6836965,63.52 82.3951916,63.8133333 82.3951916,64.1066667 L82.3951916,65.5733333 C82.3951916,68.8 81.5296769,73.4933333 77.4906086,73.4933333 C73.4515402,73.4933333 72.5860255,68.8 72.5860255,65.5733333 L72.5860255,64.1066667 C72.5860255,63.8133333 72.2975207,63.52 72.0090158,63.52 L65.0848986,63.52 C64.7963937,63.52 64.5078888,63.8133333 64.5078888,64.1066667 L64.5078888,65.5733333 C64.5078888,73.4933333 68.8354621,81.4133333 77.2021037,81.4133333 C80.6641623,81.4133333 83.837716,79.9466667 85.8572502,77.3066667 C88.1652893,79.9466667 91.0503381,81.4133333 94.5123967,81.4133333 C103.167543,81.4133333 107.206612,73.2 107.206612,65.5733333 L107.206612,52.08 C108.360631,51.7866667 108.072126,51.4933333 107.495116,51.4933333" id="Path" fill="#E9004C" fill-rule="nonzero"></path>
    </g>
</svg>