<?xml version="1.0" encoding="UTF-8"?>
<svg width="120px" height="120px" viewBox="0 0 120 120" version="1.1" xmlns="http://www.w3.org/2000/svg" xmlns:xlink="http://www.w3.org/1999/xlink">
    <title>globalcaja/icon/globalcaja_principal    </title>
    <g id="globalcaja/icon/globalcaja_principal----" stroke="none" stroke-width="1" fill="none" fill-rule="evenodd">
        <path d="M21.3888889,34.3217666 L48.3333333,61.5268139 L48.3333333,16.2776025 L60,27.1041009 L71.9444444,16 L71.9444444,61.5268139 L98.8888889,34.3217666 L98.8888889,50.1451104 L115,50.1451104 L81.9444444,82.9022082 C76.9444444,88.1766562 71.9444444,94.0063091 71.9444444,104 L67.5,104 C67.5,94.0063091 62.5,81.7917981 57.7777778,76.5173502 L45,63.7476341 L45,70.4100946 L53.8888889,79.2933754 C58.8888889,84.5678233 63.3333333,94.0063091 63.3333333,104 L58.6111111,104 C58.6111111,94.0063091 55.2777778,87.3438486 50.2777778,82.0694006 L41.3888889,73.1861199 L35,73.1861199 L43.8888889,82.0694006 C48.8888889,87.3438486 54.4444444,94.0063091 54.4444444,104 L49.1666667,104 C49.1666667,94.0063091 43.3333333,88.1766562 38.3333333,82.9022082 L5,49.8675079 L21.1111111,49.8675079 L21.3888889,34.3217666 M66.9444444,33.488959 L66.9444444,26.2712934 L62.5,30.9905363 L62.5,37.9305994 L66.9444444,33.488959 Z M57.7777778,31.5457413 L53.0555556,27.1041009 L53.0555556,33.7665615 L57.7777778,38.4858044 L57.7777778,31.5457413 Z M57.7777778,44.3154574 L53.0555556,39.873817 L53.0555556,46.8138801 L57.7777778,51.533123 L57.7777778,44.3154574 Z M66.9444444,47.0914826 L66.9444444,40.4290221 L62.5,45.148265 L62.5,51.8107256 L66.9444444,47.0914826 Z M66.9444444,65.9684543 L66.9444444,53.1987382 L62.5,57.9179811 L62.5,70.4100946 L66.9444444,65.9684543 Z M57.7777778,58.1955836 L53.0555556,53.7539432 L53.0555556,65.9684543 L57.7777778,70.6876972 L57.7777778,58.1955836 Z M30.2777778,49.0347003 L25.2777778,44.0378549 L25.2777778,50.7003155 L30.2777778,55.4195584 L30.2777778,49.0347003 Z M21.6666667,53.4763407 L15.2777778,53.4763407 L19.7222222,58.1955836 L26.3888889,58.1955836 L21.6666667,53.4763407 Z M39.7222222,58.7507886 L35,54.0315457 L35,60.6940063 L39.7222222,65.1356467 L39.7222222,58.7507886 Z M31.1111111,63.192429 L24.7222222,63.192429 L29.4444444,68.1892744 L36.1111111,68.1892744 L31.1111111,63.192429 Z M89.4444444,49.3123028 L89.4444444,55.6971609 L94.4444444,50.977918 L94.4444444,44.3154574 L89.4444444,49.3123028 Z M98.0555556,53.7539432 L93.3333333,58.4731861 L100,58.4731861 L104.444444,53.7539432 L98.0555556,53.7539432 Z M80,58.7507886 L80,65.1356467 L84.7222222,60.6940063 L84.7222222,54.0315457 L80,58.7507886 Z M88.6111111,63.192429 L83.6111111,68.1892744 L90.2777778,68.1892744 L95,63.192429 L88.6111111,63.192429 Z M65.5555556,80.126183 L75.2777778,70.4100946 L75.2777778,63.7476341 L63.0555556,75.9621451 C64.4444444,77.6277603 65.5555556,80.126183 65.5555556,80.126183 M70.2777778,89.8422713 C72.2222222,86.7886435 74.4444444,84.2902208 76.3888889,82.0694006 L85.2777778,73.1861199 L78.8888889,73.1861199 L70,82.0694006 C69.1666667,82.9022082 68.6111111,83.4574132 68.0555556,84.2902208 C69.1666667,86.7886435 70.2777778,89.8422713 70.2777778,89.8422713" id="Shape" fill="#FFDE00"></path>
    </g>
</svg>