<svg width="512" height="512" viewBox="0 0 512 512" fill="none" xmlns="http://www.w3.org/2000/svg">
<path fill-rule="evenodd" clip-rule="evenodd" d="M145.46 215.909L126.846 197.267V222.161L145.46 239.413V215.909ZM180.666 250.471L162.745 233.219V258.055L180.666 274.613V250.471ZM148.235 267.029L166.85 286.365H142.049L124.129 267.029H148.235ZM113.087 231.829L130.314 249.776H105.456L89.6165 231.829H113.087ZM282.063 157.899L282.757 131.673L265.472 148.925V175.151L282.063 157.899ZM282.063 207.63V182.793L265.53 200.046V224.882L282.063 207.63ZM247.551 197.961V224.187L229.63 206.935V181.404L247.551 197.961ZM247.551 149.62V175.151L229.63 157.204V133.063L247.551 149.62ZM282.063 277.392V230.44L265.53 247.692V293.949L282.063 277.392ZM247.551 248.387V293.949L229.63 276.697V231.829L247.551 248.387ZM366.176 215.909L384.79 197.267V222.161L366.176 239.413V215.909ZM331.028 251.166L348.949 233.219V258.055L331.028 274.613V251.166ZM363.401 267.723L344.786 286.365H369.586L386.814 267.723H363.401ZM397.913 232.524L380.686 250.471H405.486L422.019 232.524H397.913ZM276.514 330.596L312.355 294.702V269.866L266.166 314.733C272.351 320.928 276.514 330.596 276.514 330.596ZM293.741 365.796C301.314 355.433 309.58 345.764 317.211 337.486L350.336 305.007H326.172L293.047 337.486C290.272 340.264 288.191 342.985 285.474 346.459C290.33 354.738 293.741 365.796 293.741 365.796ZM111.7 159.983V218.687H51L173.093 340.959C191.708 360.296 213.097 381.716 213.097 419H233.099C233.099 381.716 212.403 356.822 193.789 337.486L161.358 305.007H184.828L217.953 337.486C236.567 356.822 248.996 381.716 248.996 419H266.917C266.917 381.716 249.69 346.459 231.769 327.123L198.645 293.949V269.113L246.915 316.76C265.53 336.096 283.451 381.658 283.451 419H300.678C300.678 381.716 319.986 360.296 337.907 340.959L460 219.382H399.994V160.678L299.984 261.529V93L255.818 133.757L212.345 93.6947V261.529L111.7 159.983Z" fill="#037A5E"/>
</svg>
